
<svg xmlns="http://www.w3.org/2000/svg" viewBox="0 0 1371.449 400" height="400" width="1371.449" xml:space="preserve" id="svg2" version="1.1"><defs id="defs6"><clipPath id="clipPath284" clipPathUnits="userSpaceOnUse"><path id="path282" d="M 0,841.89 H 595.28 V 0 H 0 Z"></path></clipPath></defs><g id="g2339" transform="matrix(0.78866898,0,0,0.78866898,-786.92433,64.099348)"><g id="g2324"><path id="path5420" style="fill:#5f5e5e;fill-opacity:1;fill-rule:nonzero;stroke:none;stroke-width:90.6454" d="m 1635.3334,107.61359 h 16.2255 v 69.25319 h -16.2255 z m -87.7445,77.68313 h 103.97 v 51.1242 h -16.2255 v -36.71141 h -87.7445 z m 29.3688,-79.49588 40.881,55.83746 -12.7814,8.79267 -28.0996,-38.97759 -28.0095,39.97417 -13.1431,-8.7015 z"></path><path id="path5422" style="fill:#5f5e5e;fill-opacity:1;fill-rule:nonzero;stroke:none;stroke-width:90.6454" d="m 1752.2661,123.20482 h -37.6182 v 21.57361 h 37.6182 z m 15.4094,82.66893 h -68.6184 v 16.31575 h 68.6184 z m -86.3846,-47.68007 v -13.41525 h 17.7662 v -21.57361 h -17.7662 v -13.68779 h 104.3322 v 13.68779 h -17.9476 v 21.57361 h 17.9476 v 13.41525 z m 102.3381,34.62708 v 42.87467 h -100.3445 v -42.87467 h 42.3315 v -11.60298 h -51.9394 v -13.68731 h 119.5608 v 13.68731 h -51.9394 v 11.60298 z"></path><path id="path5424" style="fill:#5f5e5e;fill-opacity:1;fill-rule:nonzero;stroke:none;stroke-width:90.6454" d="m 1904.5505,107.61359 h 16.0442 v 129.98528 h -16.0442 z m -33.63,41.24329 c 0,-2.90487 -0.5238,-5.70886 -1.7216,-8.24807 -1.0863,-2.53631 -2.6284,-4.89415 -4.5343,-6.88924 -1.9883,-1.90102 -4.2676,-3.35103 -6.8892,-4.53431 -2.6285,-1.17359 -5.3481,-1.81372 -8.1579,-1.81372 -2.9049,0 -5.6216,0.61104 -8.2491,1.81372 -2.5363,1.17358 -4.8941,2.62844 -6.8887,4.53431 -1.901,1.9883 -3.351,4.35487 -4.5343,6.88924 -1.1736,2.5363 -1.7216,5.34805 -1.7216,8.24807 0,2.80303 0.5237,5.52846 1.7216,8.15836 1.1736,2.62845 2.6284,4.89414 4.5343,6.79855 1.9883,1.90102 4.3549,3.35103 6.8887,4.53431 2.6285,1.17359 5.3481,1.81373 8.2491,1.81373 2.803,0 5.5284,-0.61104 8.1579,-1.81373 2.6284,-1.17358 4.8941,-2.62844 6.8892,-4.53431 1.901,-1.90101 3.4432,-4.16574 4.5343,-6.79855 1.1736,-2.62844 1.7216,-5.34806 1.7216,-8.15836 m 15.7726,0 c 0,4.80588 -0.999,9.42748 -2.9922,13.77896 -1.9883,4.26759 -4.7137,8.15836 -8.1583,11.42113 -3.2638,3.07945 -7.1608,5.62157 -11.603,7.52355 -4.5343,1.90102 -9.2456,2.80303 -14.3216,2.80303 -5.0804,0 -9.8809,-0.90201 -14.4123,-2.80303 -4.6216,-1.90101 -8.43,-4.44216 -11.6932,-7.52355 -3.351,-3.26374 -6.0711,-7.1613 -8.0677,-11.42113 -1.9883,-4.35487 -2.9922,-8.97405 -2.9922,-13.77896 0,-4.98143 0.999,-9.60788 2.9922,-13.95888 1.9883,-4.25788 4.7137,-8.06767 8.0677,-11.24023 3.2637,-3.26373 7.0701,-5.79616 11.6932,-7.70493 4.5343,-1.90102 9.3363,-2.80303 14.4123,-2.80303 5.0803,0 9.7902,0.90201 14.3216,2.80303 4.4422,1.90101 8.3397,4.44217 11.603,7.70493 3.4431,3.17644 6.1661,6.97992 8.1583,11.24023 1.9883,4.35488 2.9922,8.97405 2.9922,13.95888 m 8.1579,73.87673 h -87.0195 v -14.14073 h 87.0195 z"></path><g transform="matrix(90.645373,0,0,-90.645373,2049.8632,176.8212)" id="g5426"><path id="path5428" style="fill:#5f5e5e;fill-opacity:1;fill-rule:nonzero;stroke:none" d="M 0,0 H -0.177 V 0.764 H 0 V 0.632 H 0.206 V 0.478 H 0 V 0.33 H 0.206 V 0.174 H 0 Z m -0.598,0.399 c 0,0.055 -0.02,0.103 -0.06,0.143 -0.039,0.04 -0.087,0.059 -0.143,0.059 -0.057,0 -0.105,-0.019 -0.144,-0.059 -0.039,-0.04 -0.058,-0.088 -0.058,-0.143 0,-0.057 0.019,-0.105 0.058,-0.144 0.039,-0.039 0.087,-0.059 0.144,-0.059 0.056,0 0.104,0.02 0.143,0.059 0.04,0.039 0.06,0.087 0.06,0.144 M -1.129,-0.093 H 0 v -0.565 h -0.177 v 0.402 h -0.952 z m 0.703,0.492 c 0,-0.048 -0.01,-0.094 -0.031,-0.137 C -0.477,0.219 -0.504,0.182 -0.539,0.15 -0.572,0.117 -0.611,0.092 -0.656,0.073 -0.701,0.054 -0.749,0.045 -0.801,0.045 c -0.052,0 -0.101,0.009 -0.147,0.028 -0.045,0.019 -0.085,0.044 -0.118,0.077 -0.035,0.032 -0.062,0.069 -0.082,0.112 -0.02,0.043 -0.031,0.089 -0.031,0.137 0,0.048 0.011,0.094 0.031,0.137 0.02,0.044 0.047,0.081 0.082,0.112 0.033,0.032 0.073,0.058 0.118,0.077 0.046,0.019 0.095,0.029 0.147,0.029 0.052,0 0.1,-0.01 0.145,-0.029 0.045,-0.019 0.084,-0.045 0.117,-0.077 0.035,-0.031 0.062,-0.068 0.082,-0.112 0.021,-0.043 0.031,-0.089 0.031,-0.137"></path></g><path id="path5430" style="fill:#5f5e5e;fill-opacity:1;fill-rule:nonzero;stroke:none;stroke-width:90.6454" d="m 2162.4362,123.20482 h -37.6173 v 21.57361 h 37.6173 z m 15.5001,82.66893 h -68.6179 v 16.31575 h 68.6179 z m -86.4758,-47.68007 v -13.41525 h 17.7667 v -21.57361 h -17.7667 v -13.68779 h 104.4239 v 13.68779 h -17.9481 v 21.57361 h 17.9481 v 13.41525 z m 102.3391,34.62708 v 42.87467 h -100.2538 v -42.87467 h 42.2408 v -11.60298 h -51.8492 v -13.68731 h 119.4706 v 13.68731 h -51.8492 v 11.60298 z"></path><g transform="matrix(90.645373,0,0,-90.645373,2327.6558,190.81693)" id="g5432"><path id="path5434" style="fill:#5f5e5e;fill-opacity:1;fill-rule:nonzero;stroke:none" d="M 0,0 H -0.177 V 0.918 H 0 V 0.605 H 0.206 V 0.429 H 0 Z m -0.571,0.51 c 0,0.031 -0.006,0.06 -0.018,0.087 -0.013,0.028 -0.029,0.052 -0.049,0.072 -0.021,0.021 -0.045,0.038 -0.073,0.05 -0.028,0.012 -0.057,0.017 -0.087,0.017 -0.031,0 -0.06,-0.005 -0.087,-0.017 C -0.913,0.707 -0.937,0.69 -0.958,0.669 -0.979,0.649 -0.995,0.625 -1.007,0.597 -1.02,0.57 -1.026,0.541 -1.026,0.51 c 0,-0.031 0.006,-0.061 0.019,-0.088 0.012,-0.027 0.028,-0.051 0.049,-0.071 0.021,-0.022 0.045,-0.039 0.073,-0.05 0.027,-0.012 0.056,-0.018 0.087,-0.018 0.03,0 0.059,0.006 0.087,0.018 0.028,0.011 0.052,0.028 0.073,0.05 0.02,0.02 0.036,0.044 0.049,0.071 0.012,0.027 0.018,0.057 0.018,0.088 M -0.928,-0.008 V -0.33 h 0.965 v -0.157 h -1.143 v 0.479 z M -0.4,0.51 C -0.4,0.457 -0.411,0.408 -0.432,0.362 -0.453,0.316 -0.481,0.275 -0.518,0.24 -0.554,0.204 -0.596,0.176 -0.644,0.156 -0.692,0.136 -0.743,0.125 -0.798,0.125 c -0.055,0 -0.107,0.011 -0.156,0.031 -0.048,0.02 -0.09,0.048 -0.125,0.084 -0.036,0.035 -0.065,0.076 -0.087,0.122 -0.021,0.046 -0.032,0.095 -0.032,0.148 0,0.052 0.011,0.102 0.032,0.148 0.022,0.047 0.051,0.088 0.087,0.124 0.035,0.035 0.077,0.063 0.125,0.083 0.049,0.02 0.101,0.031 0.156,0.031 0.055,0 0.106,-0.011 0.154,-0.031 0.048,-0.02 0.09,-0.048 0.126,-0.083 C -0.481,0.746 -0.453,0.705 -0.432,0.658 -0.411,0.612 -0.4,0.562 -0.4,0.51"></path></g><g transform="matrix(90.645373,0,0,-90.645373,2456.2177,190.81693)" id="g5436"><path id="path5438" style="fill:#5f5e5e;fill-opacity:1;fill-rule:nonzero;stroke:none" d="M 0,0 V 0.439 H -0.267 V 0.597 H 0 V 0.918 H 0.178 V 0 Z m -0.984,-0.487 v 0.479 h 0.177 V -0.33 h 0.998 v -0.157 z m -0.097,1.211 v 0.152 h 0.82 V 0.724 H -0.609 L -0.246,0.217 -0.375,0.121 -0.666,0.536 -0.954,0.109 -1.085,0.206 -0.722,0.724 Z"></path></g><g transform="matrix(90.645373,0,0,-90.645373,2590.554,173.46726)" id="g5440"><path id="path5442" style="fill:#5f5e5e;fill-opacity:1;fill-rule:nonzero;stroke:none" d="M 0,0 H -0.265 V 0.159 H 0 V 0.727 H 0.178 V -0.708 H 0 Z m -0.727,0.584 v 0.152 h 0.193 V 0.584 h 0.341 V 0.431 h -0.363 l 0.397,-0.889 -0.148,-0.066 -0.323,0.736 -0.32,-0.747 -0.151,0.067 0.397,0.899 h -0.38 v 0.153 z"></path></g></g></g><g id="g2496"><g id="g2485"><g transform="matrix(71.489194,0,0,-71.489194,374.36038,200)" id="g15040"><path id="path15042" style="fill:#ffffff;fill-opacity:1;fill-rule:nonzero;stroke:none" d="m 0,0 c 0,-1.05 -0.851,-1.901 -1.901,-1.901 -1.05,0 -1.901,0.851 -1.901,1.901 0,1.05 0.851,1.901 1.901,1.901 C -0.851,1.901 0,1.05 0,0"></path></g><g id="g2352" transform="matrix(0.78866898,0,0,0.78866898,-786.92433,64.099348)"><g id="g2345"><g transform="matrix(90.645373,0,0,-90.645373,1381.191,160.27897)" id="g15044"><path id="path15046" style="fill:#0c426e;fill-opacity:1;fill-rule:nonzero;stroke:none" d="m 0,0 c -0.303,0.205 -0.69,0.122 -0.893,-0.187 -0.17,-0.258 -0.426,-0.291 -0.525,-0.291 -0.323,0 -0.544,0.228 -0.61,0.463 v 0 c -10e-4,0.003 -0.002,0.005 -0.002,0.007 -0.001,0.003 -0.002,0.005 -0.002,0.008 -0.026,0.098 -0.032,0.145 -0.032,0.249 0,0.563 0.577,1.19 1.408,1.19 0.852,0 1.34,-0.648 1.466,-1.009 -0.003,0.007 -0.005,0.013 -0.007,0.019 -0.242,0.705 -0.91,1.212 -1.697,1.212 -0.99,0 -1.793,-0.803 -1.793,-1.794 0,-0.885 0.638,-1.643 1.524,-1.643 0.707,0 1.181,0.396 1.399,0.942 C 0.356,-0.535 0.271,-0.184 0,0"></path></g><g transform="matrix(90.645373,0,0,-90.645373,1455.5653,124.46473)" id="g15048"><path id="path15050" style="fill:#e6223a;fill-opacity:1;fill-rule:nonzero;stroke:none" d="m 0,0 c -0.105,0.352 -0.596,1.044 -1.476,1.044 -0.832,0 -1.409,-0.627 -1.409,-1.19 0,-0.104 0.006,-0.151 0.032,-0.249 -0.011,0.043 -0.016,0.086 -0.016,0.128 0,0.586 0.587,0.992 1.19,0.992 0.817,0 1.479,-0.662 1.479,-1.479 0,-0.64 -0.369,-1.194 -0.904,-1.46 v -10e-4 c 0.69,0.25 1.183,0.911 1.183,1.687 C 0.079,-0.344 0.054,-0.182 0,0"></path></g></g></g></g></g></svg>
